<?xml version="1.0" encoding="utf-8"?>
<!-- Uploaded to: SVG Repo, www.svgrepo.com, Generator: SVG Repo Mixer Tools -->
<svg width="800px" height="800px" viewBox="0 0 1024 1024" class="icon"  version="1.1" xmlns="http://www.w3.org/2000/svg"><path d="M896 192H128c-35.3 0-64 28.7-64 64v512c0 35.3 28.7 64 64 64h576.6l191.6 127.7L896 832c35.3 0 64-28.7 64-64V256c0-35.3-28.7-64-64-64z" fill="#fff" /><path d="M640 512c0-125.4-51.5-238.7-134.5-320H128c-35.3 0-64 28.7-64 64v512c0 35.3 28.7 64 64 64h377.5c83-81.3 134.5-194.6 134.5-320z" fill="#536DFE" /><path d="M256 512m-64 0a64 64 0 1 0 128 0 64 64 0 1 0-128 0Z" fill="#FFFF8D" /><path d="M512 512m-64 0a64 64 0 1 0 128 0 64 64 0 1 0-128 0Z" fill="#FFFF00" /><path d="M768 512m-64 0a64 64 0 1 0 128 0 64 64 0 1 0-128 0Z" fill="#FFEA00" /></svg>