<?xml version="1.0" encoding="iso-8859-1"?>
<!-- Uploaded to: SVG Repo, www.svgrepo.com, Generator: SVG Repo Mixer Tools -->
<svg version="1.1" id="Capa_1" xmlns="http://www.w3.org/2000/svg" xmlns:xlink="http://www.w3.org/1999/xlink" 
	 viewBox="0 0 457.37 457.37" xml:space="preserve">
<g>
	<g id="XMLID_39_">
		<g>
			<polygon style="fill:#E2B369;" points="441.34,97.15 441.34,448.37 194.86,448.37 194.86,437.57 430.54,437.57 430.54,97.15 			
				"/>
			<polygon style="fill:#E2B369;" points="421.54,77.35 421.54,428.57 175.07,428.57 175.07,417.77 410.74,417.77 410.74,77.35 			
				"/>
			<polygon style="fill:#FFCC73;" points="401.74,57.55 401.74,408.77 155.27,408.77 155.27,369.23 367.28,369.23 367.28,360.23 
				271.51,360.23 271.51,339.85 367.28,339.85 367.28,330.85 271.51,330.85 271.51,310.47 367.28,310.47 367.28,301.47 
				271.51,301.47 271.51,281.09 367.28,281.09 367.28,272.09 271.51,272.09 271.51,251.71 367.28,251.71 367.28,242.71 
				271.51,242.71 271.51,222.33 367.28,222.33 367.28,213.33 271.51,213.33 271.51,166.12 367.28,166.12 367.28,157.12 
				271.51,157.12 271.51,57.55 			"/>
			<polygon style="fill:#E2B369;" points="82.4,15.37 82.4,75.37 22.4,75.37 			"/>
			<path style="fill:#FFCC73;" d="M262.51,9v351.23H16.03V84.37H91.4V9H262.51z M228.05,316.86v-9H50.49v9H228.05z M228.05,287.48
				v-9H50.49v9H228.05z M228.05,258.1v-9H50.49v9H228.05z M228.05,228.72v-9H50.49v9H228.05z M228.05,199.34v-9H50.49v9H228.05z
				 M228.05,169.96v-9H50.49v9H228.05z M228.05,113.75v-9H50.49v9H228.05z"/>
			<path d="M450.34,88.15v369.22H185.86v-19.8h-19.79v-19.8h-19.8v-48.54H7.03V78.01L85.03,0h186.48v48.55h139.23v19.8h19.8v19.8
				H450.34z M441.34,448.37V97.15h-10.8v340.42H194.86v10.8H441.34z M421.54,428.57V77.35h-10.8v340.42H175.07v10.8H421.54z
				 M401.74,408.77V57.55H271.51v99.57h95.77v9h-95.77v47.21h95.77v9h-95.77v20.38h95.77v9h-95.77v20.38h95.77v9h-95.77v20.38h95.77
				v9h-95.77v20.38h95.77v9h-95.77v20.38h95.77v9H155.27v39.54H401.74z M262.51,360.23V9H91.4v75.37H16.03v275.86H262.51z
				 M82.4,75.37v-60l-60,60H82.4z"/>
			<rect x="50.49" y="307.86" width="177.56" height="9"/>
			<rect x="50.49" y="278.48" width="177.56" height="9"/>
			<rect x="50.49" y="249.1" width="177.56" height="9"/>
			<rect x="50.49" y="219.72" width="177.56" height="9"/>
			<rect x="50.49" y="190.34" width="177.56" height="9"/>
			<rect x="50.49" y="160.96" width="177.56" height="9"/>
			<rect x="50.49" y="104.75" width="177.56" height="9"/>
		</g>
	</g>
</g>
</svg>